<mxfile host="app.diagrams.net" modified="2023-07-24T06:24:39.653Z" agent="Mozilla/5.0 (Windows NT 10.0; Win64; x64) AppleWebKit/537.36 (KHTML, like Gecko) Chrome/115.0.0.0 Safari/537.36" version="21.6.5" etag="gOXjRqHoNG0jf7OKrW-w" type="github">
  <diagram name="第 1 页" id="IqBFGUXA1wQQqDAAf3i4">
    <mxGraphModel>
      <root>
        <mxCell id="0" />
        <mxCell id="1" parent="0" />
      </root>
    </mxGraphModel>
  </diagram>
</mxfile>
